<?xml version="1.0" standalone="no"?>
<!DOCTYPE svg PUBLIC "-//W3C//DTD SVG 20010904//EN"
 "http://www.w3.org/TR/2001/REC-SVG-20010904/DTD/svg10.dtd">
<svg version="1.0" xmlns="http://www.w3.org/2000/svg"
 width="300.000000pt" height="200.000000pt" viewBox="0 0 300.000000 200.000000"
 preserveAspectRatio="xMidYMid meet">
<metadata>
Created by potrace 1.10, written by Peter Selinger 2001-2011
</metadata>
<g transform="translate(0.000000,200.000000) scale(0.100000,-0.100000)"
fill="#000000" stroke="none">
<path d="M700 1863 c-81 -13 -120 -59 -120 -139 0 -54 -13 -87 -23 -60 -4 9
-27 26 -51 38 -40 19 -49 20 -85 9 -50 -15 -76 -41 -88 -89 -32 -124 113 -210
206 -123 34 32 41 25 41 -37 0 -50 -7 -58 -82 -96 l-65 -33 -32 39 c-30 36
-34 37 -79 31 -89 -11 -132 -49 -132 -115 0 -27 8 -47 31 -73 l31 -35 -36 -15
c-43 -18 -56 -40 -56 -94 0 -50 41 -102 83 -104 21 -2 29 -8 33 -27 3 -14 10
-38 15 -54 12 -39 12 -39 -17 -32 -43 11 -133 -55 -134 -97 0 -10 13 -32 29
-48 42 -42 93 -40 135 4 l31 33 -4 -43 c-3 -43 14 -103 29 -103 17 0 19 -33 6
-102 -8 -40 -17 -104 -20 -142 -4 -39 -9 -72 -11 -74 -2 -3 -25 -6 -51 -8 -49
-4 -74 -17 -74 -40 0 -28 44 -35 236 -39 113 -2 210 -9 231 -16 24 -8 67 -10
128 -5 76 5 99 3 131 -11 34 -16 72 -18 301 -17 l262 0 40 28 40 28 238 -7
c461 -14 983 -6 1024 15 12 7 19 21 19 38 -1 15 4 49 10 77 18 83 -10 239 -61
338 -28 54 -29 60 -15 76 9 10 16 23 16 29 0 20 -50 70 -81 81 -29 10 -34 8
-61 -21 -27 -29 -30 -30 -45 -15 -15 15 -13 19 20 57 31 34 37 47 37 85 0 52
7 55 40 20 30 -32 72 -33 100 -3 29 32 34 61 16 97 -21 40 -55 48 -105 24
l-38 -19 -19 35 c-47 88 -83 110 -217 136 -44 8 -85 21 -89 28 -4 6 -7 66 -6
132 3 114 4 120 23 116 39 -8 198 -12 221 -7 13 4 31 18 40 31 16 24 15 27
-10 63 -14 21 -26 43 -26 49 0 6 -14 23 -31 37 -47 40 -95 36 -155 -14 -56
-46 -64 -41 -64 37 0 69 -16 100 -64 126 -41 22 -41 22 -806 23 -421 1 -776 0
-790 -3z m1604 -62 c13 -14 16 -62 18 -304 2 -218 0 -289 -9 -298 -15 -15 -17
-65 -4 -73 5 -3 3 -22 -4 -43 -7 -21 -16 -64 -20 -95 -4 -34 -12 -58 -19 -58
-9 0 -12 101 -11 401 0 282 -3 403 -11 410 -7 5 -323 8 -784 7 l-773 -3 2
-181 2 -181 -23 -7 c-49 -13 -48 -18 -48 197 0 160 3 207 14 223 14 18 37 19
813 24 439 3 808 3 820 1 12 -2 29 -11 37 -20z m-547 -119 c-32 -34 -33 -42
-6 -76 l21 -26 -30 -35 c-35 -39 -47 -92 -47 -207 0 -64 4 -81 23 -107 27 -37
27 -36 0 -61 -32 -29 -46 -25 -54 16 -4 23 -22 53 -50 82 -27 28 -44 55 -44
69 0 32 -25 79 -47 88 -10 4 -40 9 -67 11 -65 4 -72 8 -80 38 -18 71 -78 124
-158 141 -18 3 -28 12 -28 23 0 10 -7 27 -15 38 -8 10 -15 22 -15 27 0 4 140
7 312 7 l312 0 -27 -28z m368 18 c-25 -41 -4 -99 31 -86 13 5 15 15 11 51 -6
42 -5 45 17 45 13 0 27 -7 30 -16 8 -20 8 -369 0 -377 -3 -3 -20 3 -37 14 -39
23 -55 24 -79 2 -23 -21 -29 -14 -36 42 -4 42 -2 49 26 75 43 39 49 71 23 115
-12 20 -21 42 -21 49 0 7 -11 23 -25 36 -21 20 -39 25 -94 28 -66 4 -67 4 -99
-32 -37 -43 -41 -44 -35 -12 3 16 -2 31 -16 45 -12 12 -21 23 -21 26 0 3 75 5
166 5 110 0 163 -3 159 -10z m-1649 -25 c4 -8 14 -15 24 -15 21 0 44 -25 36
-39 -4 -6 -1 -19 5 -29 10 -16 8 -25 -16 -56 -15 -19 -31 -33 -36 -31 -4 3
-18 0 -29 -7 -18 -11 -23 -10 -33 3 -7 9 -21 18 -32 21 -11 2 -19 11 -19 21 1
9 -2 17 -7 17 -12 0 -11 47 1 55 6 4 10 12 9 18 -4 32 2 39 25 35 15 -3 27 0
30 8 7 19 35 18 42 -1z m662 3 c7 -7 12 -32 12 -56 0 -38 2 -43 19 -37 35 11
103 -12 139 -48 28 -28 36 -45 40 -86 l4 -50 87 -3 86 -3 3 -62 c3 -57 5 -63
24 -63 27 0 78 -47 78 -71 0 -28 61 -189 71 -189 5 0 2 14 -7 31 -21 42 -9 67
52 107 52 35 74 40 74 18 0 -24 30 -46 62 -46 33 0 84 26 93 48 3 8 -6 5 -24
-7 -42 -30 -84 -37 -104 -16 -24 24 -22 28 25 50 23 11 44 26 46 32 3 9 -4 8
-25 -2 -44 -23 -107 -19 -140 9 -26 23 -28 28 -27 103 2 142 4 156 19 180 18
27 85 63 119 63 19 0 23 4 19 20 -3 12 2 29 12 40 18 20 59 27 69 12 3 -5 19
-7 36 -4 36 5 70 -20 70 -52 0 -12 9 -29 20 -39 11 -9 20 -26 20 -37 0 -29
-37 -62 -61 -55 -18 6 -20 4 -13 -29 4 -23 2 -42 -5 -50 -8 -10 -9 -16 -1 -21
17 -10 11 -61 -9 -79 -13 -12 -27 -15 -41 -11 -20 6 -21 4 -18 -31 3 -34 7
-39 45 -51 65 -22 118 -80 141 -155 25 -82 28 -172 7 -204 -12 -19 -24 -24
-58 -24 -23 0 -52 7 -63 15 -12 8 -24 12 -27 9 -2 -3 -2 -43 1 -89 4 -68 2
-89 -12 -110 -15 -23 -22 -25 -90 -25 l-73 0 -6 -41 c-12 -88 -105 -169 -194
-169 l-38 0 -26 -75 -26 -75 215 0 c195 0 214 1 208 16 -20 52 -68 263 -63
276 5 13 27 15 159 12 l153 -4 28 64 c35 77 71 115 120 123 32 5 37 3 37 -14
0 -69 137 -55 178 18 21 36 33 36 102 1 74 -37 112 -94 139 -211 12 -48 21
-118 21 -155 0 -58 -3 -70 -25 -91 -15 -16 -36 -25 -55 -25 -17 0 -29 -4 -25
-9 3 -5 30 -7 60 -4 33 4 55 2 55 -4 0 -6 -78 -13 -192 -18 -251 -11 -285 -11
-732 0 l-379 8 -17 -23 c-17 -23 -18 -23 -281 -24 -279 -1 -339 4 -339 31 0
13 -2 14 -17 2 -20 -17 -194 -17 -236 0 -18 7 -104 11 -233 11 -129 0 -204 4
-204 10 0 6 31 10 73 10 l73 0 17 133 c9 72 21 148 27 167 l10 35 130 -1 c106
-1 127 1 114 11 -11 7 -35 10 -61 7 -36 -4 -43 -2 -43 12 0 48 54 85 127 87
33 0 35 2 16 9 -15 6 -40 4 -74 -6 -32 -10 -66 -13 -90 -9 -44 8 -44 7 -25 43
16 32 31 90 20 79 -4 -4 -15 -28 -23 -54 -12 -36 -22 -49 -41 -54 -20 -5 -13
-8 37 -19 55 -11 61 -14 53 -31 -6 -10 -10 -29 -10 -43 0 -23 -4 -26 -37 -26
-110 1 -159 36 -149 107 6 48 74 189 102 215 28 24 93 39 116 27 10 -6 31 -9
46 -7 21 2 30 11 38 38 7 21 19 36 30 38 32 6 73 54 80 91 8 48 56 171 66 171
4 0 8 11 8 25 0 33 21 73 54 104 22 21 31 23 54 15 17 -6 26 -16 24 -27 -2 -9
2 -17 8 -17 17 0 11 -26 -9 -45 -26 -23 -61 -94 -55 -110 7 -17 -23 -131 -46
-174 -25 -48 -120 -149 -126 -135 -3 6 -11 20 -19 30 -9 11 -7 1 5 -26 24 -55
25 -104 4 -166 -15 -43 -15 -48 0 -56 14 -8 23 -38 11 -38 -2 0 -19 9 -37 20
-37 22 -48 25 -48 10 0 -5 8 -10 18 -10 9 0 26 -7 36 -15 17 -13 18 -18 7 -41
l-12 -27 -22 20 c-29 26 -47 36 -47 26 0 -5 10 -13 23 -18 18 -8 22 -18 22
-53 1 -24 -3 -46 -7 -48 -19 -12 -69 -128 -73 -172 l-5 -47 15 54 c41 144 132
258 226 282 46 12 49 15 49 46 0 28 -3 33 -25 33 -47 0 -66 86 -22 103 8 3 25
-2 37 -10 19 -13 24 -13 31 -2 9 14 14 65 10 107 -2 24 -3 23 114 26 28 1 59
6 69 12 15 9 3 11 -55 7 -140 -8 -139 -7 -139 -61 0 -26 -5 -54 -10 -62 -7
-10 -10 -11 -10 -2 0 9 -9 9 -37 -3 -35 -15 -39 -15 -50 1 -7 10 -13 26 -13
36 0 25 35 87 65 118 14 14 37 40 51 58 29 36 76 44 92 16 17 -30 24 4 7 35
-20 39 -20 130 1 159 19 28 65 52 100 52 24 0 26 3 20 31 -11 59 4 69 104 69
100 0 100 0 80 71 -15 53 -49 79 -114 88 l-56 8 0 -42 c0 -22 -5 -46 -12 -53
-17 -17 -339 -17 -356 0 -16 16 -16 190 0 206 8 8 62 12 178 12 116 0 170 -4
178 -12z m1423 -6 c14 -12 22 -30 22 -50 0 -24 5 -32 21 -34 40 -6 24 -33 -24
-40 -93 -14 -159 -9 -180 12 -11 11 -20 24 -20 29 0 15 30 41 46 41 8 0 14 5
14 10 0 20 41 50 69 50 16 0 39 -8 52 -18z m-753 -30 c3 -16 -2 -22 -17 -22
-24 0 -35 15 -27 36 9 23 40 13 44 -14z m-565 -124 c33 -17 47 -34 47 -57 0
-19 -6 -21 -54 -21 -30 0 -62 -3 -70 -6 -13 -5 -11 5 9 45 28 54 34 58 68 39z
m-413 -98 c17 0 30 -2 30 -5 0 -10 -55 -115 -60 -115 -3 0 -11 15 -18 34 -7
18 -21 41 -32 51 -14 12 -20 31 -20 58 l0 39 35 -31 c23 -20 46 -31 65 -31z
m290 -2 c0 -2 -6 -20 -14 -41 -9 -27 -24 -45 -52 -61 l-39 -22 0 63 0 63 53 0
c28 0 52 -1 52 -2z m-730 -83 c0 -7 -10 -15 -22 -18 -26 -7 -38 1 -19 12 23
14 -49 22 -78 8 -32 -15 -41 -66 -15 -91 23 -23 9 -33 -16 -11 -20 18 -26 58
-14 90 10 25 62 47 95 40 20 -5 29 -3 29 6 0 8 7 6 20 -6 11 -10 20 -24 20
-30z m354 13 c9 -12 16 -39 16 -59 0 -33 -3 -37 -30 -42 -24 -5 -30 -12 -30
-33 0 -26 -1 -27 -20 -9 -12 11 -28 15 -42 12 -21 -5 -21 -5 -6 7 10 7 15 15
13 18 -3 3 1 19 8 36 12 30 14 31 35 17 11 -9 19 -22 16 -30 -4 -10 0 -12 16
-8 20 5 20 6 3 25 -10 11 -30 26 -44 34 -26 13 -27 13 -33 -21 -4 -20 -25 -54
-52 -84 -38 -42 -50 -50 -70 -45 -32 8 -54 -11 -54 -47 0 -34 23 -59 55 -59
16 0 26 -9 35 -30 17 -40 0 -80 -32 -80 -42 0 -85 -36 -113 -95 -32 -64 -54
-69 -71 -17 -5 17 -15 37 -22 44 -7 7 -12 28 -12 48 0 36 11 55 80 141 17 20
22 43 25 103 3 64 7 82 30 111 45 60 85 73 257 83 18 1 32 -6 42 -20z m1403
-30 c-2 -7 9 -18 25 -25 21 -9 28 -19 28 -41 0 -36 -16 -52 -52 -52 -36 0 -37
18 0 22 21 2 27 8 27 28 0 29 -31 40 -37 13 -4 -15 -7 -13 -18 9 -10 22 -11
30 0 43 15 18 33 20 27 3z m-1781 -38 c10 0 26 8 37 18 20 17 20 17 3 -10 -10
-14 -20 -53 -22 -85 -3 -32 -7 -68 -10 -81 -5 -23 -5 -23 -29 6 -14 16 -38 35
-55 42 -29 12 -30 14 -14 31 12 14 15 28 9 55 -8 45 9 60 42 39 12 -8 30 -15
39 -15z m1729 -56 c-8 -36 26 -58 79 -50 l45 7 5 -128 c6 -148 15 -246 25
-253 18 -13 28 -56 18 -77 -6 -13 -13 -23 -18 -23 -4 0 -14 -17 -23 -37 -26
-63 -38 -73 -90 -73 -47 0 -62 14 -26 25 24 8 70 61 70 82 0 24 -30 53 -55 53
-12 0 -34 -12 -48 -26 -22 -22 -28 -24 -33 -11 -3 9 -4 26 -2 39 2 19 10 23
43 26 85 6 115 44 115 145 0 127 -57 240 -143 285 l-48 25 28 29 27 29 18 -23
c10 -13 16 -32 13 -44z m-1320 -5 c14 -42 -45 -66 -61 -24 -10 25 4 45 30 45
16 0 27 -7 31 -21z m1700 -9 c96 -25 124 -41 155 -86 31 -47 36 -76 21 -117
-8 -19 -15 -23 -39 -19 -37 5 -57 -21 -66 -90 -8 -53 -40 -107 -76 -125 -14
-7 -55 -13 -92 -13 -61 0 -68 2 -88 27 -26 34 -23 79 21 273 l10 45 99 -1 c55
0 103 -4 107 -8 8 -8 5 -140 -3 -169 -9 -30 -40 -39 -74 -22 -22 11 -35 13
-49 5 -46 -24 -78 4 -46 40 10 11 16 22 13 25 -2 3 -18 -10 -34 -29 l-30 -33
29 -13 c16 -7 42 -9 62 -6 20 4 42 2 53 -5 30 -19 71 -3 87 34 17 43 14 175
-6 188 -8 6 -47 7 -92 4 -62 -5 -83 -3 -103 9 -30 20 -31 43 -2 73 24 26 74
30 143 13z m-1807 -12 c17 -17 15 -58 -4 -65 -22 -8 -47 9 -55 38 -5 16 -7 18
-8 7 -1 -10 -8 -18 -18 -18 -14 0 -14 2 2 20 10 11 21 17 26 15 4 -3 10 -1 14
5 8 14 28 13 43 -2z m47 -28 c3 -5 15 -10 26 -10 20 0 22 -7 20 -50 -5 -73
-79 -113 -144 -78 -20 10 -21 10 -8 -5 7 -10 22 -17 32 -17 22 0 25 -28 6 -54
-10 -14 -21 -17 -45 -11 -28 6 -31 9 -26 35 4 15 1 44 -6 64 -10 30 -15 35
-34 30 -47 -12 -74 55 -33 80 15 9 22 6 39 -14 13 -16 19 -18 15 -7 -9 26 44
23 61 -3 7 -11 19 -20 27 -20 22 0 57 39 51 56 -6 16 10 19 19 4z m-420 -39
c59 -34 35 -127 -33 -129 -46 -1 -71 26 -70 77 0 23 4 42 9 42 5 1 13 2 19 3
5 0 15 7 22 14 15 15 16 15 53 -7z m2512 -76 c13 -30 -4 -78 -25 -70 -8 3 -19
5 -25 5 -19 0 -36 35 -30 59 4 15 11 20 23 16 10 -3 21 -1 25 5 10 16 19 12
32 -15z m-166 -101 c12 -34 -11 -68 -49 -72 -27 -3 -31 -7 -28 -25 17 -83 16
-104 -7 -124 -48 -44 -113 -57 -137 -28 -18 22 -5 45 26 45 51 0 114 90 114
165 0 55 63 86 81 39z m-2357 -140 c9 -8 16 -22 16 -30 0 -19 -19 -57 -34 -66
-36 -25 -104 12 -92 50 4 12 14 22 22 22 8 0 23 9 34 20 24 24 34 25 54 4z
m2453 -1 c-4 -3 7 -14 23 -24 17 -11 30 -23 30 -29 0 -16 -15 -12 -35 10 -18
20 -51 28 -40 10 3 -5 2 -10 -3 -10 -5 0 -14 11 -20 25 -11 24 -10 25 20 25
17 0 28 -3 25 -7z m-1915 -102 l26 -39 -24 -11 c-22 -10 -25 -8 -37 22 -13 30
-12 67 2 67 3 -1 18 -18 33 -39z m1332 1 c3 -5 -13 -26 -35 -48 l-40 -39 3 35
c2 25 10 38 28 47 30 15 37 16 44 5z m-90 -88 c24 -23 19 -34 -14 -34 -33 0
-35 3 -20 31 13 23 14 23 34 3z m-185 -187 c1 -16 -1 -16 -29 -2 -35 18 -36
23 -12 64 l17 31 12 -37 c6 -21 12 -46 12 -56z m-45 -35 c61 -36 32 -112 -43
-112 -23 0 -33 7 -45 32 -21 41 -20 46 7 74 26 28 41 29 81 6z m-135 -54 c26
-71 27 -68 -32 -68 -29 0 -56 3 -59 6 -9 8 10 66 24 76 25 16 58 9 67 -14z"/>
<path d="M1462 1645 c-23 -28 -19 -66 9 -91 10 -9 19 -29 19 -44 0 -50 42 -66
76 -29 21 23 23 98 4 134 -12 22 -59 55 -78 55 -6 0 -19 -11 -30 -25z m88 -53
c-5 -2 -5 -13 0 -28 10 -26 0 -67 -20 -79 -16 -10 -26 3 -12 17 16 16 15 60
-3 84 -14 19 -14 18 -15 -3 0 -36 -17 -26 -22 12 -2 20 -2 38 0 40 3 2 22 -6
43 -18 21 -12 34 -23 29 -25z"/>
<path d="M1592 1474 c-27 -19 -28 -55 -3 -78 24 -22 53 -14 71 19 12 23 11 28
-10 50 -28 29 -29 30 -58 9z m46 -37 c4 -21 -27 -35 -38 -17 -12 19 0 42 19
38 9 -2 17 -11 19 -21z"/>
<path d="M428 1653 c-18 -3 -28 -10 -28 -22 0 -9 -5 -22 -12 -29 -8 -8 -8 -15
2 -27 7 -8 10 -18 6 -22 -11 -11 45 -29 76 -25 15 2 28 10 28 17 0 7 8 16 17
19 12 5 14 9 5 18 -7 7 -12 22 -12 35 0 16 -6 23 -20 23 -11 0 -20 5 -20 10 0
6 -3 9 -7 9 -5 -1 -20 -4 -35 -6z m57 -57 c0 -36 -27 -56 -52 -40 -40 25 -20
77 26 72 21 -2 26 -8 26 -32z"/>
<path d="M430 1590 c0 -13 7 -20 20 -20 13 0 20 7 20 20 0 13 -7 20 -20 20
-13 0 -20 -7 -20 -20z"/>
<path d="M975 1604 c-16 -14 -37 -23 -47 -21 -21 6 -23 -3 -5 -26 11 -16 16
-14 57 28 47 48 44 62 -5 19z"/>
<path d="M990 1555 c-24 -25 -39 -45 -33 -45 17 0 96 77 86 83 -5 4 -29 -14
-53 -38z"/>
<path d="M1781 1499 c-18 -11 -31 -22 -28 -25 3 -3 17 2 32 12 22 14 31 15 46
6 10 -7 32 -12 47 -12 21 0 32 -7 40 -25 6 -14 16 -25 22 -25 5 0 10 -15 10
-33 0 -43 6 -48 37 -34 l26 12 -24 5 c-15 4 -24 13 -25 27 -1 11 -11 30 -23
42 -11 11 -21 26 -21 31 0 6 -13 10 -28 10 -16 0 -37 7 -48 15 -24 18 -23 19
-63 -6z"/>
<path d="M1766 1393 c-12 -12 -6 -33 10 -33 11 0 14 -6 9 -21 -5 -14 -2 -25 6
-30 23 -14 34 -10 14 5 -19 14 -19 15 0 37 17 20 18 22 3 16 -12 -4 -18 -1
-18 8 0 16 -14 27 -24 18z"/>
<path d="M917 1364 c-12 -16 -14 -24 -5 -22 8 2 13 -6 12 -19 0 -12 3 -20 8
-17 4 3 8 11 8 19 0 7 7 15 15 19 8 3 15 11 15 17 0 8 -4 8 -15 -1 -20 -17
-32 -5 -15 15 7 8 9 15 4 15 -5 0 -17 -12 -27 -26z"/>
<path d="M1232 1338 c-13 -13 -17 -114 -4 -121 4 -3 7 23 7 56 l0 62 95 6 95
5 -90 2 c-60 1 -95 -2 -103 -10z"/>
<path d="M1431 1293 c-1 -24 4 -43 9 -43 12 0 12 37 0 65 -7 15 -9 10 -9 -22z"/>
<path d="M1293 1295 l37 -26 43 25 42 26 -80 0 -80 0 38 -25z"/>
<path d="M1855 1290 c-3 -5 -23 -10 -43 -10 -28 -1 -33 -3 -21 -10 18 -11 79
6 79 21 0 12 -7 11 -15 -1z"/>
<path d="M1256 1263 c1 -28 1 -28 77 -31 l77 -3 0 31 0 31 -39 -22 -39 -22
-35 22 c-43 26 -43 27 -41 -6z"/>
<path d="M1071 1266 c-32 -18 -50 -53 -51 -98 0 -57 17 -87 51 -86 34 1 59
-17 59 -43 0 -10 9 -23 21 -29 26 -15 24 -76 -3 -74 -22 2 -22 5 2 -56 12 -31
20 -74 20 -110 0 -52 -4 -64 -29 -92 -26 -30 -34 -32 -86 -32 -31 1 -61 6 -68
13 -13 13 -27 14 -27 2 0 -5 17 -17 38 -28 33 -16 38 -22 31 -41 -15 -40 -115
-24 -137 22 -9 17 -11 18 -11 4 -2 -43 86 -82 134 -60 14 6 27 23 31 38 6 23
10 25 38 20 17 -3 66 -23 109 -45 l77 -39 6 27 c5 23 20 77 29 108 3 8 15 7
47 -4 23 -8 55 -12 71 -9 l28 6 -7 -48 c-4 -26 -12 -62 -19 -81 l-11 -34 -86
2 c-123 3 -136 -2 -151 -57 -7 -27 -19 -47 -29 -50 -12 -3 -21 -22 -28 -61 -6
-31 -14 -64 -16 -73 -7 -22 -34 -24 -34 -2 0 9 -16 32 -35 51 -34 34 -37 35
-88 28 -57 -7 -135 -7 -148 0 -4 3 2 27 13 53 22 50 28 126 11 143 -7 7 -9 -5
-6 -38 3 -33 -1 -63 -15 -98 -19 -49 -21 -50 -57 -47 -65 5 -28 -15 40 -23 36
-3 65 -10 65 -13 0 -4 -7 -16 -15 -26 -8 -11 -15 -31 -14 -45 0 -23 2 -22 12
9 14 39 79 80 130 80 29 0 97 -55 97 -79 0 -20 -15 -11 -35 22 -11 17 -28 33
-38 35 -11 2 -7 -7 15 -29 21 -20 28 -34 20 -37 -6 -2 -24 10 -38 27 -14 17
-31 31 -36 31 -6 0 2 -12 18 -27 25 -24 27 -28 11 -31 -10 -2 -27 4 -38 14
-11 10 -19 12 -19 6 0 -7 6 -12 13 -12 8 0 7 -4 -3 -10 -10 -7 16 -10 82 -10
67 0 98 -4 100 -12 3 -7 10 10 16 37 7 28 26 89 43 138 l31 87 77 0 c42 0 113
3 159 7 l82 6 0 78 c0 43 4 89 9 102 14 37 51 67 82 67 27 0 28 2 31 58 l3 57
48 3 47 3 0 47 c0 45 -1 46 -16 24 -23 -33 -52 -27 -97 20 -38 40 -41 41 -97
39 -82 -3 -133 13 -169 54 -24 27 -31 45 -31 75 l0 40 -90 0 c-103 0 -112 7
-103 78 5 39 4 42 -18 42 -13 -1 -35 -7 -48 -14z m29 -59 c0 -52 60 -87 147
-87 40 0 44 -3 58 -37 34 -81 86 -113 194 -120 70 -4 79 -8 110 -38 l34 -33
-22 -27 c-11 -15 -21 -40 -21 -56 0 -20 -8 -34 -27 -46 -36 -22 -63 -49 -63
-63 0 -5 -5 -10 -11 -10 -6 0 -8 9 -3 22 3 11 7 43 7 69 1 46 1 47 22 33 20
-13 25 -12 45 4 19 15 21 22 12 39 -6 11 -22 27 -35 36 -23 15 -26 14 -46 -4
-11 -11 -21 -24 -21 -30 0 -17 -74 28 -98 60 -43 59 -102 31 -102 -49 0 -26
-5 -61 -11 -78 -7 -20 -7 -42 -1 -66 11 -40 -13 -126 -36 -126 -14 0 -72 28
-72 35 0 2 9 21 19 42 28 54 32 101 16 163 -9 33 -12 73 -9 101 5 39 2 54 -21
93 -17 29 -42 54 -65 66 -50 25 -60 52 -40 104 12 33 40 34 40 3z m258 -326
c2 -28 -1 -47 -10 -52 -9 -6 -6 -9 10 -9 28 0 28 -16 0 -31 -22 -12 -22 -12
-3 -19 11 -4 23 -20 27 -36 7 -29 7 -28 4 4 -3 37 4 39 41 15 21 -14 25 -15
18 -3 -5 8 -9 24 -8 35 1 16 1 16 -3 3 -9 -31 -24 -19 -25 20 -1 27 -3 30 -6
12 -3 -14 -9 -29 -15 -35 -8 -7 -9 -6 -3 3 4 8 2 25 -6 38 -7 13 -10 26 -7 29
10 11 57 -7 83 -31 20 -19 24 -30 20 -55 -5 -29 -21 -64 -43 -97 -12 -18 -112
4 -112 24 0 8 -4 14 -10 14 -5 0 -12 17 -16 37 -6 31 -3 39 16 55 12 10 17 18
11 18 -12 0 -16 92 -4 104 19 19 38 -1 41 -43z m192 -26 c15 -16 19 -25 10
-25 -15 0 -50 29 -50 42 0 15 16 8 40 -17z"/>
<path d="M1218 1060 l-32 -33 23 -18 c13 -10 27 -16 32 -13 5 3 9 0 9 -5 0
-16 26 -13 39 3 8 10 9 16 1 21 -5 3 -10 17 -10 29 0 13 -7 29 -15 36 -12 10
-20 6 -47 -20z"/>
<path d="M1494 1239 c-3 -6 7 -23 22 -38 16 -15 34 -36 40 -47 10 -16 11 -15
7 12 -3 21 -13 35 -29 43 -13 6 -24 15 -24 21 0 13 6 13 40 -5 17 -9 30 -12
30 -7 0 10 -44 32 -65 32 -8 0 -17 -5 -21 -11z"/>
<path d="M1433 1163 c-81 -4 -83 -4 -83 -29 0 -38 27 -82 60 -99 18 -9 57 -15
105 -15 l76 0 -16 30 c-8 16 -15 38 -15 50 0 11 -7 20 -15 20 -14 0 -19 11
-16 38 1 6 -2 11 -6 10 -4 -1 -45 -4 -90 -5z m82 -54 c2 -2 6 -16 10 -32 7
-26 6 -27 -38 -27 -69 0 -134 63 -74 72 22 3 94 -6 102 -13z"/>
<path d="M1750 1076 c-5 -15 -10 -37 -9 -49 0 -13 6 -4 14 23 16 49 12 69 -5
26z"/>
<path d="M1806 955 c-27 -25 -27 -27 -12 -50 23 -35 20 -43 -16 -48 -18 -2 8
-4 57 -4 50 0 72 2 50 4 -63 6 -75 15 -30 23 28 5 46 4 60 -6 11 -8 29 -14 40
-14 14 1 8 7 -20 21 -27 13 -49 17 -70 13 -27 -6 -28 -5 -16 10 7 9 20 16 27
16 8 0 14 5 14 11 0 6 -16 2 -36 -10 -40 -24 -44 -25 -44 -11 0 6 19 20 43 30
28 13 35 20 21 20 -12 0 -33 -9 -48 -21 -14 -11 -26 -16 -26 -10 0 6 12 18 26
28 28 18 73 12 159 -20 47 -18 132 -33 100 -18 -35 16 -60 24 -69 22 -5 -1
-31 7 -57 18 -67 29 -119 27 -153 -4z"/>
<path d="M2071 959 c-18 -6 -31 -12 -29 -15 6 -5 108 15 108 22 0 7 -43 3 -79
-7z"/>
<path d="M1103 851 c-3 -11 -9 -18 -14 -15 -13 7 -11 -3 4 -26 10 -17 9 -22
-3 -30 -8 -5 -12 -11 -9 -14 3 -3 14 1 25 8 15 12 17 17 7 27 -17 17 -16 29 2
29 17 0 20 26 4 35 -6 4 -13 -2 -16 -14z"/>
<path d="M1002 833 c5 -25 28 -28 28 -4 0 12 -6 21 -16 21 -9 0 -14 -7 -12
-17z"/>
<path d="M1746 799 c-40 -48 -32 -115 17 -140 21 -11 21 -11 -2 15 -54 58 -17
146 61 146 45 0 88 -37 88 -77 0 -29 -25 -79 -42 -86 -9 -4 -9 -6 -1 -6 22 -2
53 51 53 88 0 55 -41 91 -102 91 -39 0 -50 -5 -72 -31z"/>
<path d="M1000 744 c0 -14 23 -45 41 -54 16 -9 26 -8 45 5 24 16 33 45 13 45
-5 0 -7 -4 -4 -10 4 -6 -8 -10 -29 -10 -45 0 -56 18 -14 23 29 3 28 4 -9 5
-24 1 -43 -1 -43 -4z"/>
<path d="M1587 709 c-30 -17 -47 -73 -47 -150 l0 -71 29 5 c39 8 56 -11 40
-47 -7 -14 -10 -28 -7 -31 2 -3 28 2 56 10 84 25 152 99 152 165 0 18 -6 20
-73 20 -43 0 -78 5 -85 12 -7 7 -12 31 -12 55 0 46 -14 54 -53 32z m52 -113
c14 -12 41 -21 77 -24 35 -3 53 -9 50 -16 -19 -45 -33 -66 -43 -66 -7 0 -13
-4 -13 -9 0 -5 -11 -11 -24 -13 -18 -4 -30 3 -50 29 -15 18 -33 33 -41 33 -20
0 -30 75 -14 112 l13 32 12 -30 c7 -16 22 -38 33 -48z"/>
<path d="M1780 713 c0 -14 22 -33 40 -33 9 0 25 7 36 15 18 15 17 16 -14 10
-20 -4 -39 -2 -47 5 -8 7 -15 8 -15 3z"/>
<path d="M2650 655 c-21 -25 -23 -104 -6 -178 9 -38 16 -70 16 -72 0 -13 -91
-25 -146 -20 -52 6 -69 4 -90 -10 -14 -9 -29 -13 -34 -8 -4 4 -14 44 -24 88
-9 44 -23 85 -31 91 -8 6 -15 26 -16 45 l-1 34 -12 -38 c-6 -21 -15 -35 -18
-32 -4 4 -17 3 -30 -1 -19 -7 -15 -10 27 -14 l49 -5 34 -142 34 -143 101 1
102 1 -45 14 c-32 10 -51 12 -67 4 -29 -12 -29 -3 -1 27 12 13 16 23 9 23 -6
0 -20 -13 -29 -30 -18 -32 -27 -36 -37 -20 -4 6 8 24 25 41 17 17 24 29 15 25
-9 -3 -18 -6 -21 -6 -2 0 -11 -14 -20 -32 -15 -29 -17 -30 -27 -13 -8 16 -4
24 24 47 18 15 29 28 24 28 -5 0 -19 -10 -32 -22 -13 -12 -26 -18 -30 -14 -10
10 32 44 64 52 32 8 108 -14 129 -37 9 -11 20 -36 24 -57 l8 -37 1 36 c1 23
-7 46 -19 62 l-21 26 23 6 c92 21 138 34 106 31 l-36 -4 -17 91 c-15 82 -15
97 -2 135 16 46 16 49 -3 27z"/>
<path d="M1138 494 c-5 -4 -8 -28 -7 -53 l1 -46 9 40 c10 43 9 71 -3 59z"/>
<path d="M589 468 c-15 -28 -49 -217 -40 -223 18 -10 26 17 28 93 1 51 8 96
18 114 18 37 13 51 -6 16z"/>
<path d="M2472 1658 c-7 -7 -12 -20 -12 -30 0 -12 -8 -18 -24 -18 -33 0 -44
-20 -21 -37 22 -16 185 -19 185 -3 0 6 -9 10 -21 10 -16 0 -19 4 -14 20 10 31
-20 70 -53 70 -16 0 -33 -5 -40 -12z"/>
<path d="M2317 995 c-8 -18 11 -31 25 -17 11 11 3 32 -12 32 -4 0 -10 -7 -13
-15z"/>
<path d="M2424 986 c-4 -10 -2 -22 4 -28 8 -8 13 -7 18 6 4 10 2 22 -4 28 -8
8 -13 7 -18 -6z"/>
<path d="M2419 874 c-8 -10 -24 -14 -46 -12 -18 2 -33 0 -33 -4 0 -15 77 -8
90 7 7 9 11 18 8 20 -3 3 -11 -2 -19 -11z"/>
<path d="M660 1092 c0 -29 54 -43 64 -16 9 24 9 24 -29 24 -19 0 -35 -4 -35
-8z"/>
<path d="M233 1110 c-41 -16 -20 -90 24 -90 45 0 68 75 27 91 -24 10 -24 10
-51 -1z m47 -20 c12 -7 12 -13 4 -27 -23 -38 -66 -19 -50 22 6 17 24 19 46 5z"/>
<path d="M2757 1044 c-14 -14 -7 -35 11 -32 9 2 17 10 17 17 0 16 -18 25 -28
15z"/>
<path d="M241 797 c-8 -11 -6 -18 9 -32 18 -16 20 -16 26 -1 7 19 -1 46 -14
46 -5 0 -15 -6 -21 -13z"/>
<path d="M190 756 c0 -15 21 -26 47 -26 14 0 14 3 -2 20 -21 23 -45 26 -45 6z"/>
<path d="M1770 386 c0 -8 -6 -16 -12 -19 -19 -6 11 -57 33 -57 49 0 69 48 32
76 -24 18 -53 18 -53 0z m57 -22 c8 -21 -19 -46 -40 -38 -17 6 -23 35 -10 47
12 13 44 7 50 -9z"/>
<path d="M2444 1428 c-11 -13 -27 -37 -37 -54 -16 -31 -16 -33 2 -55 l19 -23
43 19 c61 26 79 44 79 75 0 56 -69 80 -106 38z m76 -37 c0 -17 -4 -33 -10 -36
-6 -3 -10 4 -10 16 0 22 -2 21 -35 -11 -19 -18 -38 -30 -42 -27 -4 4 9 21 28
37 29 25 31 29 14 30 -17 0 -17 2 -5 10 8 5 25 10 38 10 18 0 22 -6 22 -29z"/>
<path d="M2591 1364 c-42 -35 -43 -84 -2 -125 48 -48 111 -36 137 26 17 41 7
73 -32 104 -35 28 -66 27 -103 -5z m87 -19 c13 -5 21 -13 18 -21 -3 -7 0 -15
7 -18 9 -5 9 -7 0 -12 -7 -3 -13 -15 -13 -26 0 -12 -3 -18 -7 -15 -3 4 -11 3
-17 -2 -7 -6 -23 -4 -43 5 -24 12 -30 21 -29 42 0 15 8 34 16 43 15 17 25 17
68 4z"/>
<path d="M2624 1315 c-8 -21 2 -45 19 -45 8 0 20 7 27 15 10 12 10 18 0 30 -7
8 -19 15 -27 15 -7 0 -16 -7 -19 -15z"/>
<path d="M240 622 c-26 -8 -60 -45 -60 -64 0 -34 30 -77 57 -84 42 -11 76 7
92 49 13 35 13 40 -6 64 -20 28 -57 43 -83 35z m50 -42 c12 0 16 -8 15 -28 -2
-41 -12 -52 -45 -52 -33 0 -40 8 -45 50 -3 24 0 30 15 30 11 0 20 5 20 12 0 9
3 9 12 0 7 -7 19 -12 28 -12z"/>
<path d="M234 549 c-3 -6 0 -17 8 -25 12 -12 17 -12 32 -1 11 8 16 19 12 25
-9 15 -43 15 -52 1z"/>
</g>
</svg>
