<?xml version="1.0" standalone="no"?>
<!DOCTYPE svg PUBLIC "-//W3C//DTD SVG 20010904//EN"
 "http://www.w3.org/TR/2001/REC-SVG-20010904/DTD/svg10.dtd">
<svg version="1.0" xmlns="http://www.w3.org/2000/svg"
 width="1024.000000pt" height="1024.000000pt" viewBox="0 0 1024.000000 1024.000000"
 preserveAspectRatio="xMidYMid meet">
<metadata>
Created by potrace 1.16, written by Peter Selinger 2001-2019
</metadata>
<g transform="translate(0.000000,1024.000000) scale(0.100000,-0.100000)"
fill="#000000" stroke="none">
<path d="M5045 9439 c-133 -11 -239 -65 -315 -160 -98 -124 -115 -311 -40
-459 27 -53 93 -125 139 -149 20 -11 21 -19 21 -136 l0 -125 -64 0 c-79 0
-289 -24 -442 -51 -805 -139 -1440 -583 -1767 -1234 -19 -38 -42 -87 -50 -107
-13 -31 -21 -38 -54 -43 -168 -26 -241 -60 -333 -155 -158 -163 -233 -374
-230 -645 1 -71 3 -141 6 -155 11 -68 25 -122 48 -183 14 -37 22 -67 18 -67
-4 0 -2 -4 3 -8 6 -4 32 -39 57 -78 98 -148 232 -237 389 -258 78 -10 79 -11
90 -46 20 -61 89 -192 147 -280 34 -50 111 -139 188 -217 72 -73 127 -134 122
-135 -4 -2 2 -9 14 -17 21 -13 22 -13 9 2 -23 29 -2 19 57 -26 53 -41 161
-106 257 -156 32 -16 36 -20 17 -21 -59 -1 -288 -102 -391 -172 -35 -25 -45
-28 -53 -17 -8 11 -9 10 -5 -3 4 -12 -16 -33 -71 -74 -400 -301 -676 -778
-743 -1284 -8 -63 -18 -99 -28 -108 -15 -11 -14 -13 1 -23 14 -7 18 -23 18
-62 0 -117 49 -290 107 -377 47 -71 136 -150 208 -186 225 -111 485 -69 657
107 36 38 68 64 70 57 3 -7 7 -5 11 6 4 11 3 15 -4 10 -7 -4 -10 -3 -7 2 16
35 88 177 91 181 2 2 22 -23 45 -55 23 -32 71 -87 108 -122 l68 -63 -33 -191
c-68 -399 -121 -743 -121 -786 0 -25 7 -73 16 -105 50 -196 220 -311 536 -364
166 -28 279 -34 404 -22 249 25 377 89 441 219 25 50 28 68 28 152 0 71 -5
106 -19 140 -22 53 -22 59 6 313 l22 197 50 -7 c28 -3 165 -7 303 -7 l253 -1
-7 -210 c-9 -316 12 -402 127 -508 90 -84 190 -124 410 -164 133 -24 599 -25
710 -1 167 36 271 99 320 193 21 42 25 63 25 135 0 76 -4 92 -33 152 -37 76
-110 149 -195 193 -64 34 -57 8 -82 305 -8 96 -19 224 -25 283 l-11 109 34 37
c144 159 235 416 238 670 l1 93 26 -7 c136 -35 175 -39 372 -39 159 -1 225 3
295 17 347 70 662 254 839 489 16 21 33 35 39 31 6 -3 7 -1 3 5 -4 6 11 42 34
79 41 68 100 232 100 278 0 25 0 25 98 26 304 2 357 19 429 137 29 47 30 48
32 222 1 96 4 177 6 181 3 3 5 122 6 263 l1 257 -27 55 c-34 69 -66 93 -257
190 -97 49 -173 80 -220 90 -40 9 -77 20 -82 25 -5 4 2 6 15 3 21 -4 22 -3 4
5 -21 9 -38 5 -30 -8 7 -12 -138 -20 -390 -21 -232 -1 -279 -6 -346 -41 -20
-10 -40 -15 -44 -11 -5 4 -5 2 -2 -4 4 -6 -4 -21 -17 -33 -13 -13 -36 -49 -50
-81 -25 -56 -27 -74 -41 -347 -8 -158 -15 -314 -15 -345 l0 -57 -60 -32 c-33
-17 -86 -54 -117 -81 -73 -65 -116 -91 -210 -130 -73 -30 -86 -32 -198 -32
-136 -1 -193 13 -375 91 -58 24 -116 49 -130 54 -23 10 -15 16 110 78 240 119
405 235 548 385 156 164 297 386 377 593 22 57 34 74 56 83 141 59 269 239
324 454 33 129 40 230 26 357 -31 275 -146 475 -324 564 -39 19 -75 35 -82 35
-7 0 -27 33 -43 73 -43 100 -122 244 -198 358 -334 499 -877 847 -1519 973
-100 20 -386 56 -441 56 l-42 0 5 123 c2 71 9 124 15 126 32 11 117 94 146
141 44 75 56 120 57 220 0 89 -18 157 -57 213 -11 15 -16 27 -12 27 4 0 -19
24 -50 54 -97 94 -215 136 -351 125z m126 -184 c144 -49 213 -223 143 -363
-28 -57 -87 -107 -144 -122 -32 -9 -35 -13 -35 -47 -1 -21 -2 -98 -3 -170 l-2
-133 -60 0 -60 0 0 175 c0 151 -2 175 -15 175 -28 0 -91 38 -123 74 -119 135
-49 363 128 417 42 13 124 10 171 -6z m170 -1025 c556 -44 978 -188 1344 -459
418 -311 690 -764 787 -1311 21 -118 17 -490 -6 -615 -56 -306 -178 -565 -374
-795 -168 -198 -352 -329 -628 -450 -360 -157 -772 -224 -1374 -224 -564 -1
-959 55 -1390 196 -297 97 -514 223 -714 417 -117 114 -197 222 -262 355 l-53
109 59 38 c72 46 157 148 204 243 127 257 122 704 -11 960 -43 83 -138 183
-200 212 -23 10 -43 23 -43 27 0 15 66 152 109 226 107 183 321 424 501 563
243 188 510 320 825 408 174 49 381 81 650 103 99 8 453 6 576 -3z m-2716
-1454 c152 -72 237 -280 237 -576 0 -181 -22 -290 -84 -413 -105 -211 -311
-263 -489 -123 -145 114 -214 301 -207 561 4 120 8 151 32 220 48 142 146 274
237 321 52 27 78 32 154 33 54 1 81 -5 120 -23z m5049 -131 c114 -172 138
-495 53 -700 -24 -58 -97 -178 -104 -171 -3 2 0 28 6 58 45 229 32 599 -29
830 -11 40 -20 77 -20 82 0 17 60 -47 94 -99z m963 -1373 c23 -12 44 -26 47
-30 6 -10 -237 -22 -432 -22 -68 0 -143 -5 -167 -11 -53 -13 -116 -65 -139
-113 -18 -38 -30 -186 -42 -543 -4 -112 -10 -203 -13 -202 -3 0 -37 36 -75 80
l-69 80 7 232 c11 352 20 449 45 490 12 19 29 39 39 43 20 10 365 21 597 20
144 -2 164 -4 202 -24z m286 -193 c19 -26 19 -35 7 -415 -9 -295 -15 -395 -26
-416 -23 -45 -60 -49 -463 -46 -347 3 -370 4 -390 22 -20 18 -21 29 -21 175 0
86 5 256 10 379 10 236 18 272 62 302 26 17 261 27 607 26 l194 -1 20 -26z
m-5338 -733 c83 -64 110 -208 61 -329 -34 -82 -65 -124 -187 -253 -58 -61
-127 -140 -151 -175 -87 -123 -155 -283 -199 -471 l-21 -88 -41 33 c-63 51
-104 72 -197 105 -154 54 -339 74 -502 53 -32 -4 -58 -3 -58 1 0 21 76 211
118 293 165 331 475 639 796 791 120 56 186 74 272 71 61 -2 76 -6 109 -31z
m325 -6 c158 -38 422 -84 615 -107 218 -25 898 -26 1105 0 194 24 411 61 542
94 l107 27 20 -25 c11 -13 42 -67 69 -119 132 -252 228 -585 261 -900 7 -58
13 -120 16 -138 4 -33 2 -35 -58 -62 -194 -87 -608 -179 -972 -216 -232 -23
-804 -23 -1070 0 -430 37 -954 136 -1207 228 -32 11 -58 21 -58 22 0 1 13 40
29 87 60 178 126 279 310 472 122 130 170 207 197 325 26 112 9 242 -41 317
-21 30 -22 36 -8 31 10 -3 74 -19 143 -36z m3898 -111 c179 -179 180 -179 403
-179 l148 0 -16 -52 c-55 -187 -206 -389 -339 -454 -64 -31 -122 -30 -215 5
-219 83 -359 288 -359 527 0 102 7 120 73 196 59 69 114 110 140 106 9 -2 83
-69 165 -149z m-1216 -48 c59 -35 184 -80 269 -97 126 -25 290 -9 423 42 17 7
19 4 14 -33 -8 -59 8 -189 32 -263 29 -87 96 -193 167 -262 67 -66 191 -145
241 -154 l35 -7 -28 -15 c-119 -62 -342 -106 -535 -106 -213 1 -420 48 -420
97 0 38 -57 298 -89 411 -35 121 -91 275 -127 350 -32 67 -33 66 18 37z
m-3890 -1125 c166 -42 274 -109 319 -197 60 -119 11 -299 -115 -417 -102 -95
-216 -127 -352 -99 -92 20 -145 47 -200 103 -90 93 -128 227 -122 428 4 151
12 167 95 189 95 25 262 22 375 -7z m615 -85 c188 -73 744 -175 1178 -216 228
-22 754 -30 973 -16 408 27 864 112 1094 206 34 14 64 23 67 20 11 -12 -41
-203 -74 -272 -47 -100 -87 -156 -169 -237 -203 -200 -508 -332 -911 -392
-163 -25 -568 -30 -765 -9 -574 59 -1003 226 -1270 494 -77 76 -105 112 -136
175 -35 73 -39 88 -42 173 -2 51 -1 93 2 93 3 0 27 -8 53 -19z m445 -830 c182
-86 482 -178 691 -211 63 -11 77 -16 73 -29 -3 -9 -10 -72 -16 -141 -16 -175
-15 -173 -43 -156 -38 24 -157 56 -234 63 -83 7 -125 -6 -142 -43 -15 -34 -14
-48 7 -73 13 -17 38 -25 115 -36 157 -23 245 -74 292 -169 60 -120 12 -220
-131 -273 -133 -50 -454 -41 -672 18 -136 36 -209 85 -248 165 -24 50 -26 62
-22 142 3 48 34 258 69 468 l64 381 46 -29 c26 -15 94 -50 151 -77z m2643
-121 c8 -118 17 -229 19 -246 l4 -30 -53 4 c-75 6 -161 -6 -184 -26 -11 -9
-23 -29 -27 -44 -5 -22 0 -33 23 -56 27 -27 34 -29 143 -35 195 -10 312 -64
364 -169 60 -121 10 -212 -139 -254 -82 -22 -440 -31 -602 -14 -262 27 -436
99 -475 199 -21 53 -28 181 -22 367 l7 191 91 12 c109 15 324 69 421 106 101
38 259 118 340 173 39 26 71 45 72 42 1 -3 9 -102 18 -220z"/>
<path d="M5070 7679 c-431 -29 -683 -85 -937 -210 -379 -186 -637 -493 -743
-881 -44 -162 -54 -254 -54 -478 0 -304 34 -474 139 -685 278 -559 910 -814
1965 -792 389 8 637 44 888 126 458 150 764 453 887 876 98 340 92 765 -16
1072 -192 544 -641 864 -1330 947 -266 33 -548 41 -799 25z m795 -188 c263
-40 471 -104 630 -193 343 -194 540 -488 607 -903 19 -120 16 -418 -6 -540
-105 -582 -481 -909 -1176 -1024 -221 -36 -365 -44 -654 -38 -295 6 -464 23
-682 67 -331 67 -568 178 -752 354 -208 199 -305 423 -333 766 -29 363 61 716
246 962 249 332 613 503 1195 564 83 8 235 12 450 10 276 -3 347 -6 475 -25z"/>
<path d="M4325 6616 c-28 -12 -71 -43 -96 -68 -175 -175 -173 -534 3 -708 68
-67 139 -94 233 -88 157 10 276 126 320 311 29 123 16 266 -34 373 -63 134
-166 204 -301 204 -57 0 -87 -6 -125 -24z m291 -151 c12 -8 29 -30 38 -49 59
-124 -54 -232 -149 -143 -57 52 -60 129 -9 180 31 31 86 36 120 12z"/>
<path d="M6270 6603 c-59 -22 -149 -112 -183 -185 -99 -208 -64 -453 85 -595
105 -100 278 -102 390 -4 151 132 189 414 83 621 -34 67 -86 122 -141 149 -62
31 -169 38 -234 14z m252 -155 c25 -12 51 -66 52 -109 1 -49 -20 -85 -61 -104
-31 -15 -36 -15 -70 2 -52 26 -75 61 -75 116 0 57 15 85 55 102 31 13 65 11
99 -7z"/>
<path d="M5041 5814 c-26 -34 -26 -54 0 -106 48 -94 189 -190 317 -217 116
-24 251 -7 352 44 101 51 200 169 200 236 0 33 -39 69 -73 69 -29 0 -39 -9
-90 -80 -68 -93 -167 -135 -298 -128 -126 7 -222 65 -302 182 -25 36 -78 36
-106 0z"/>
<path d="M8383 4919 c-102 -50 -166 -155 -166 -268 1 -110 51 -194 145 -247
46 -25 63 -29 128 -29 86 0 136 21 194 81 65 67 94 197 65 294 -18 61 -78 131
-138 162 -68 36 -164 39 -228 7z m164 -90 c40 -15 73 -48 94 -94 26 -56 23
-103 -8 -166 -22 -42 -38 -59 -73 -76 -54 -28 -82 -28 -137 -4 -53 25 -92 82
-99 147 -5 41 -1 58 23 103 43 83 124 119 200 90z"/>
</g>
</svg>
